<svg width="508" height="333" viewBox="0 0 508 333" fill="none" xmlns="http://www.w3.org/2000/svg">
<g style="mix-blend-mode:overlay" opacity="0.4">
<path d="M0.776953 72.05V0.499991H125.427V329H45.327V72.05H0.776953ZM409.366 67.55H268.966V129.65C274.966 123.05 283.366 117.65 294.166 113.45C304.966 109.25 316.666 107.15 329.266 107.15C351.766 107.15 370.366 112.25 385.066 122.45C400.066 132.65 411.016 145.85 417.916 162.05C424.816 178.25 428.266 195.8 428.266 214.7C428.266 249.8 418.366 277.7 398.566 298.4C378.766 318.8 350.866 329 314.866 329C290.866 329 270.016 324.95 252.316 316.85C234.616 308.45 220.966 296.9 211.366 282.2C201.766 267.5 196.516 250.55 195.616 231.35H270.766C272.566 240.65 276.916 248.45 283.816 254.75C290.716 260.75 300.166 263.75 312.166 263.75C326.266 263.75 336.766 259.25 343.666 250.25C350.566 241.25 354.016 229.25 354.016 214.25C354.016 199.55 350.416 188.3 343.216 180.5C336.016 172.7 325.516 168.8 311.716 168.8C301.516 168.8 293.116 171.35 286.516 176.45C279.916 181.25 275.566 187.7 273.466 195.8H199.216V0.0499972H409.366V67.55ZM514.392 332.6C500.892 332.6 489.792 328.7 481.092 320.9C472.692 312.8 468.492 302.9 468.492 291.2C468.492 279.2 472.692 269.15 481.092 261.05C489.792 252.95 500.892 248.9 514.392 248.9C527.592 248.9 538.392 252.95 546.792 261.05C555.492 269.15 559.842 279.2 559.842 291.2C559.842 302.9 555.492 312.8 546.792 320.9C538.392 328.7 527.592 332.6 514.392 332.6ZM514.392 149.45C500.892 149.45 489.792 145.55 481.092 137.75C472.692 129.65 468.492 119.75 468.492 108.05C468.492 96.05 472.692 86 481.092 77.9C489.792 69.8 500.892 65.75 514.392 65.75C527.592 65.75 538.392 69.8 546.792 77.9C555.492 86 559.842 96.05 559.842 108.05C559.842 119.75 555.492 129.65 546.792 137.75C538.392 145.55 527.592 149.45 514.392 149.45Z" fill="white"/>
</g>
</svg>
