<svg width="1190" height="265" viewBox="0 0 1190 265" fill="none" xmlns="http://www.w3.org/2000/svg">
<g style="mix-blend-mode:overlay" opacity="0.4">
<path d="M223.525 145C217.825 134.5 209.575 126.55 198.775 121.15C188.275 115.45 175.825 112.6 161.425 112.6C136.525 112.6 116.575 120.85 101.575 137.35C86.5748 153.55 79.0748 175.3 79.0748 202.6C79.0748 231.7 86.8748 254.5 102.475 271C118.375 287.2 140.125 295.3 167.725 295.3C186.625 295.3 202.525 290.5 215.425 280.9C228.625 271.3 238.225 257.5 244.225 239.5H146.575V182.8H313.975V254.35C308.275 273.55 298.525 291.4 284.725 307.9C271.225 324.4 253.975 337.75 232.975 347.95C211.975 358.15 188.275 363.25 161.875 363.25C130.675 363.25 102.775 356.5 78.1748 343C53.8748 329.2 34.8248 310.15 21.0248 285.85C7.5248 261.55 0.774805 233.8 0.774805 202.6C0.774805 171.4 7.5248 143.65 21.0248 119.35C34.8248 94.75 53.8748 75.7 78.1748 62.2C102.475 48.4 130.225 41.5 161.425 41.5C199.225 41.5 231.025 50.65 256.825 68.95C282.925 87.25 300.175 112.6 308.575 145H223.525ZM593.298 231.4C593.298 238.6 592.848 246.1 591.948 253.9H417.798C418.998 269.5 423.948 281.5 432.648 289.9C441.648 298 452.598 302.05 465.498 302.05C484.698 302.05 498.048 293.95 505.548 277.75H587.448C583.248 294.25 575.598 309.1 564.498 322.3C553.698 335.5 540.048 345.85 523.548 353.35C507.048 360.85 488.598 364.6 468.198 364.6C443.598 364.6 421.698 359.35 402.498 348.85C383.298 338.35 368.298 323.35 357.498 303.85C346.698 284.35 341.298 261.55 341.298 235.45C341.298 209.35 346.548 186.55 357.048 167.05C367.848 147.55 382.848 132.55 402.048 122.05C421.248 111.55 443.298 106.3 468.198 106.3C492.498 106.3 514.098 111.4 532.998 121.6C551.898 131.8 566.598 146.35 577.098 165.25C587.898 184.15 593.298 206.2 593.298 231.4ZM514.548 211.15C514.548 197.95 510.048 187.45 501.048 179.65C492.048 171.85 480.798 167.95 467.298 167.95C454.398 167.95 443.448 171.7 434.448 179.2C425.748 186.7 420.348 197.35 418.248 211.15H514.548ZM672.593 83.8C659.093 83.8 647.993 79.9 639.293 72.1C630.893 64 626.693 54.1 626.693 42.4C626.693 30.4 630.893 20.5 639.293 12.7C647.993 4.59998 659.093 0.549974 672.593 0.549974C685.793 0.549974 696.593 4.59998 704.993 12.7C713.693 20.5 718.043 30.4 718.043 42.4C718.043 54.1 713.693 64 704.993 72.1C696.593 79.9 685.793 83.8 672.593 83.8ZM710.843 109.9V361H633.893V109.9H710.843ZM1087.01 107.2C1118.21 107.2 1142.96 116.65 1161.26 135.55C1179.86 154.45 1189.16 180.7 1189.16 214.3V361H1112.66V224.65C1112.66 208.45 1108.31 196 1099.61 187.3C1091.21 178.3 1079.51 173.8 1064.51 173.8C1049.51 173.8 1037.66 178.3 1028.96 187.3C1020.56 196 1016.36 208.45 1016.36 224.65V361H939.858V224.65C939.858 208.45 935.508 196 926.808 187.3C918.408 178.3 906.708 173.8 891.708 173.8C876.708 173.8 864.858 178.3 856.158 187.3C847.758 196 843.558 208.45 843.558 224.65V361H766.608V109.9H843.558V141.4C851.358 130.9 861.558 122.65 874.158 116.65C886.758 110.35 901.008 107.2 916.908 107.2C935.808 107.2 952.608 111.25 967.308 119.35C982.308 127.45 994.008 139 1002.41 154C1011.11 140.2 1022.96 128.95 1037.96 120.25C1052.96 111.55 1069.31 107.2 1087.01 107.2Z" fill="white" fill-opacity="0.44"/>
</g>
</svg>
