<svg width="24" height="24" viewBox="0 0 24 24" fill="none" xmlns="http://www.w3.org/2000/svg">
<path d="M12 0.333374C15.1698 0.333374 15.5653 0.345041 16.809 0.403374C18.0515 0.461707 18.8973 0.656541 19.6417 0.945874C20.4117 1.24221 21.0603 1.64354 21.709 2.29104C22.3023 2.87425 22.7613 3.57973 23.0542 4.35837C23.3423 5.10154 23.5383 5.94854 23.5967 7.19104C23.6515 8.43471 23.6667 8.83021 23.6667 12C23.6667 15.1699 23.655 15.5654 23.5967 16.809C23.5383 18.0515 23.3423 18.8974 23.0542 19.6417C22.7621 20.4208 22.303 21.1264 21.709 21.709C21.1256 22.3021 20.4202 22.7611 19.6417 23.0542C18.8985 23.3424 18.0515 23.5384 16.809 23.5967C15.5653 23.6515 15.1698 23.6667 12 23.6667C8.83018 23.6667 8.43468 23.655 7.19101 23.5967C5.94851 23.5384 5.10268 23.3424 4.35834 23.0542C3.57939 22.7619 2.87379 22.3028 2.29101 21.709C1.69765 21.1259 1.2386 20.4204 0.945844 19.6417C0.65651 18.8985 0.461677 18.0515 0.403343 16.809C0.34851 15.5654 0.333344 15.1699 0.333344 12C0.333344 8.83021 0.34501 8.43471 0.403343 7.19104C0.461677 5.94737 0.65651 5.10271 0.945844 4.35837C1.23779 3.57925 1.69695 2.87358 2.29101 2.29104C2.87396 1.69748 3.57951 1.23839 4.35834 0.945874C5.10268 0.656541 5.94734 0.461707 7.19101 0.403374C8.43468 0.348541 8.83018 0.333374 12 0.333374ZM12 6.16671C10.4529 6.16671 8.96918 6.78129 7.87522 7.87525C6.78126 8.96921 6.16668 10.4529 6.16668 12C6.16668 13.5471 6.78126 15.0309 7.87522 16.1248C8.96918 17.2188 10.4529 17.8334 12 17.8334C13.5471 17.8334 15.0308 17.2188 16.1248 16.1248C17.2188 15.0309 17.8333 13.5471 17.8333 12C17.8333 10.4529 17.2188 8.96921 16.1248 7.87525C15.0308 6.78129 13.5471 6.16671 12 6.16671ZM19.5833 5.87504C19.5833 5.48827 19.4297 5.11733 19.1562 4.84384C18.8827 4.57035 18.5118 4.41671 18.125 4.41671C17.7382 4.41671 17.3673 4.57035 17.0938 4.84384C16.8203 5.11733 16.6667 5.48827 16.6667 5.87504C16.6667 6.26182 16.8203 6.63275 17.0938 6.90624C17.3673 7.17973 17.7382 7.33337 18.125 7.33337C18.5118 7.33337 18.8827 7.17973 19.1562 6.90624C19.4297 6.63275 19.5833 6.26182 19.5833 5.87504ZM12 8.50004C12.9283 8.50004 13.8185 8.86879 14.4749 9.52517C15.1313 10.1815 15.5 11.0718 15.5 12C15.5 12.9283 15.1313 13.8185 14.4749 14.4749C13.8185 15.1313 12.9283 15.5 12 15.5C11.0718 15.5 10.1815 15.1313 9.52514 14.4749C8.86876 13.8185 8.50001 12.9283 8.50001 12C8.50001 11.0718 8.86876 10.1815 9.52514 9.52517C10.1815 8.86879 11.0718 8.50004 12 8.50004Z" fill="white"/>
</svg>
