<svg width="24" height="20" viewBox="0 0 24 20" fill="none" xmlns="http://www.w3.org/2000/svg">
<path d="M23.8557 2.5987C22.965 2.99268 22.0205 3.25142 21.0533 3.36637C22.0727 2.75671 22.8357 1.79722 23.2 0.666703C22.2433 1.23604 21.1945 1.63504 20.1013 1.85087C19.367 1.06521 18.3938 0.54416 17.3328 0.368719C16.2718 0.193277 15.1826 0.373276 14.2345 0.880732C13.2864 1.38819 12.5325 2.19467 12.09 3.17479C11.6475 4.15492 11.5412 5.25378 11.7877 6.30054C9.84763 6.2033 7.94972 5.69915 6.21717 4.82081C4.48462 3.94248 2.95615 2.70959 1.731 1.2022C1.29734 1.94706 1.06945 2.7938 1.07067 3.6557C1.07067 5.34737 1.93167 6.84187 3.24067 7.71687C2.46601 7.69248 1.7084 7.48328 1.031 7.1067V7.16737C1.03123 8.29402 1.4211 9.38592 2.13449 10.2579C2.84788 11.13 3.8409 11.7284 4.94517 11.9519C4.22605 12.1467 3.47203 12.1755 2.74017 12.0359C3.05151 13.0056 3.65834 13.8538 4.47569 14.4615C5.29304 15.0692 6.27998 15.4061 7.29833 15.425C6.28623 16.2199 5.12737 16.8075 3.88803 17.1542C2.64868 17.501 1.35315 17.6 0.0755005 17.4457C2.30581 18.88 4.90211 19.6415 7.55383 19.639C16.529 19.639 21.4372 12.2039 21.4372 5.7557C21.4372 5.5457 21.4313 5.33337 21.422 5.1257C22.3773 4.43523 23.2019 3.57989 23.8568 2.59987L23.8557 2.5987Z" fill="white"/>
</svg>
