<svg width="609" height="341" viewBox="0 0 609 341" fill="none" xmlns="http://www.w3.org/2000/svg">
<g style="mix-blend-mode:overlay" opacity="0.4">
<path d="M-1.04824 340.6C-14.5482 340.6 -25.6482 336.7 -34.3482 328.9C-42.7482 320.8 -46.9482 310.9 -46.9482 299.2C-46.9482 287.2 -42.7482 277.15 -34.3482 269.05C-25.6482 260.95 -14.5482 256.9 -1.04824 256.9C12.1518 256.9 22.9518 260.95 31.3518 269.05C40.0518 277.15 44.4018 287.2 44.4018 299.2C44.4018 310.9 40.0518 320.8 31.3518 328.9C22.9518 336.7 12.1518 340.6 -1.04824 340.6ZM-1.04824 157.45C-14.5482 157.45 -25.6482 153.55 -34.3482 145.75C-42.7482 137.65 -46.9482 127.75 -46.9482 116.05C-46.9482 104.05 -42.7482 94 -34.3482 85.9C-25.6482 77.8 -14.5482 73.75 -1.04824 73.75C12.1518 73.75 22.9518 77.8 31.3518 85.9C40.0518 94 44.4018 104.05 44.4018 116.05C44.4018 127.75 40.0518 137.65 31.3518 145.75C22.9518 153.55 12.1518 157.45 -1.04824 157.45ZM85.8826 101.2C87.0826 69.1 97.5826 44.35 117.383 26.95C137.183 9.54999 164.033 0.849983 197.933 0.849983C220.433 0.849983 239.633 4.74999 255.533 12.55C271.733 20.35 283.883 31 291.983 44.5C300.383 58 304.583 73.15 304.583 89.95C304.583 109.75 299.633 125.95 289.733 138.55C279.833 150.85 268.283 159.25 255.083 163.75V165.55C272.183 171.25 285.683 180.7 295.583 193.9C305.483 207.1 310.433 224.05 310.433 244.75C310.433 263.35 306.083 279.85 297.383 294.25C288.983 308.35 276.533 319.45 260.033 327.55C243.833 335.65 224.483 339.7 201.983 339.7C165.983 339.7 137.183 330.85 115.583 313.15C94.2826 295.45 83.0326 268.75 81.8326 233.05H156.533C156.833 246.25 160.583 256.75 167.783 264.55C174.983 272.05 185.483 275.8 199.283 275.8C210.983 275.8 219.983 272.5 226.283 265.9C232.883 259 236.183 250 236.183 238.9C236.183 224.5 231.533 214.15 222.233 207.85C213.233 201.25 198.683 197.95 178.583 197.95H164.183V135.4H178.583C193.883 135.4 206.183 132.85 215.483 127.75C225.083 122.35 229.883 112.9 229.883 99.4C229.883 88.6 226.883 80.2 220.883 74.2C214.883 68.2 206.633 65.2 196.133 65.2C184.733 65.2 176.183 68.65 170.483 75.55C165.083 82.45 161.933 91 161.033 101.2H85.8826ZM355.644 168.25C355.644 116.65 365.544 76 385.344 46.3C405.444 16.6 437.694 1.74997 482.094 1.74997C526.494 1.74997 558.594 16.6 578.394 46.3C598.494 76 608.544 116.65 608.544 168.25C608.544 220.45 598.494 261.4 578.394 291.1C558.594 320.8 526.494 335.65 482.094 335.65C437.694 335.65 405.444 320.8 385.344 291.1C365.544 261.4 355.644 220.45 355.644 168.25ZM532.944 168.25C532.944 137.95 529.644 114.7 523.044 98.5C516.444 82 502.794 73.75 482.094 73.75C461.394 73.75 447.744 82 441.144 98.5C434.544 114.7 431.244 137.95 431.244 168.25C431.244 188.65 432.444 205.6 434.844 219.1C437.244 232.3 442.044 243.1 449.244 251.5C456.744 259.6 467.694 263.65 482.094 263.65C496.494 263.65 507.294 259.6 514.494 251.5C521.994 243.1 526.944 232.3 529.344 219.1C531.744 205.6 532.944 188.65 532.944 168.25Z" fill="white"/>
</g>
</svg>
