<svg width="587" height="317" viewBox="0 0 587 317" fill="none" xmlns="http://www.w3.org/2000/svg">
<g style="mix-blend-mode:overlay" opacity="0.4">
<path d="M-12.1491 316.36C-24.7491 316.36 -35.1091 312.72 -43.2291 305.44C-51.0691 297.88 -54.9891 288.64 -54.9891 277.72C-54.9891 266.52 -51.0691 257.14 -43.2291 249.58C-35.1091 242.02 -24.7491 238.24 -12.1491 238.24C0.170939 238.24 10.2509 242.02 18.0909 249.58C26.2109 257.14 30.2709 266.52 30.2709 277.72C30.2709 288.64 26.2109 297.88 18.0909 305.44C10.2509 312.72 0.170939 316.36 -12.1491 316.36ZM-12.1491 145.42C-24.7491 145.42 -35.1091 141.78 -43.2291 134.5C-51.0691 126.94 -54.9891 117.7 -54.9891 106.78C-54.9891 95.58 -51.0691 86.2 -43.2291 78.64C-35.1091 71.08 -24.7491 67.3 -12.1491 67.3C0.170939 67.3 10.2509 71.08 18.0909 78.64C26.2109 86.2 30.2709 95.58 30.2709 106.78C30.2709 117.7 26.2109 126.94 18.0909 134.5C10.2509 141.78 0.170939 145.42 -12.1491 145.42ZM68.1464 258.4V200.44L200.866 10.6H281.086V196.24H315.526V258.4H281.086V313H209.266V258.4H68.1464ZM214.306 89.56L143.746 196.24H214.306V89.56ZM350.705 155.5C350.705 107.34 359.945 69.4 378.425 41.68C397.185 13.96 427.285 0.099973 468.725 0.099973C510.165 0.099973 540.125 13.96 558.605 41.68C577.365 69.4 586.745 107.34 586.745 155.5C586.745 204.22 577.365 242.44 558.605 270.16C540.125 297.88 510.165 311.74 468.725 311.74C427.285 311.74 397.185 297.88 378.425 270.16C359.945 242.44 350.705 204.22 350.705 155.5ZM516.185 155.5C516.185 127.22 513.105 105.52 506.945 90.4C500.785 75 488.045 67.3 468.725 67.3C449.405 67.3 436.665 75 430.505 90.4C424.345 105.52 421.265 127.22 421.265 155.5C421.265 174.54 422.385 190.36 424.625 202.96C426.865 215.28 431.345 225.36 438.065 233.2C445.065 240.76 455.285 244.54 468.725 244.54C482.165 244.54 492.245 240.76 498.965 233.2C505.965 225.36 510.585 215.28 512.825 202.96C515.065 190.36 516.185 174.54 516.185 155.5Z" fill="white"/>
</g>
</svg>
