<svg width="613" height="548" viewBox="0 0 613 548" fill="none" xmlns="http://www.w3.org/2000/svg">
<g clip-path="url(#clip0_791_35962)">
<path d="M241.627 0H379.834L613 548H455.989L408.98 416.059H203.08L154.19 548H0L241.627 0ZM374.193 317.306C367.925 301.657 361.344 285.468 354.449 268.739C348.181 251.471 341.914 234.742 335.646 218.552C330.005 202.363 324.677 187.253 319.663 173.223C314.649 158.653 310.261 146.511 306.5 136.798C302.739 147.051 298.351 159.462 293.337 174.033C288.323 188.063 282.682 203.173 276.414 219.362C270.773 235.551 264.505 252.01 257.61 268.739C251.342 285.468 245.075 301.657 238.807 317.306H374.193Z" fill="white"/>
</g>
<defs>
<clipPath id="clip0_791_35962">
<rect width="613" height="548" fill="white"/>
</clipPath>
</defs>
</svg>
