<svg width="62" height="45" viewBox="0 0 62 45" fill="none" xmlns="http://www.w3.org/2000/svg">
<line x1="23" y1="2" x2="23" y2="16.5" stroke="white" stroke-width="4" stroke-linecap="round"/>
<line x1="33" y1="3.8501" x2="33" y2="14.6501" stroke="white" stroke-width="4" stroke-linecap="round"/>
<line x1="43" y1="5.7002" x2="43" y2="12.8002" stroke="white" stroke-width="4" stroke-linecap="round"/>
<path d="M6.13908 37.2142C6.24867 36.4574 5.94338 35.8786 5.22321 35.478L3.71242 34.7434C1.95897 33.7894 1.1266 32.4761 1.21532 30.8034C1.25185 30.0275 1.46059 29.3406 1.84155 28.7428C2.22251 28.1449 2.75742 27.6775 3.44627 27.3404C4.13513 26.997 4.87878 26.8316 5.67723 26.8443C6.77836 26.8698 7.66813 27.2704 8.34655 28.0464C9.02497 28.8159 9.35896 29.8494 9.34853 31.1468H7.06277C7.08887 30.5172 6.97406 30.0275 6.71834 29.6777C6.46785 29.3279 6.07646 29.1466 5.54416 29.1339C5.02229 29.1212 4.56828 29.2675 4.1821 29.5727C3.79592 29.8717 3.5663 30.2851 3.49324 30.8129C3.39409 31.5062 3.77505 32.0563 4.63612 32.4633L5.6694 32.9403L6.26433 33.2742C7.80382 34.2028 8.52399 35.5066 8.42483 37.1856C8.37786 38.0061 8.16129 38.7152 7.77511 39.313C7.39416 39.9045 6.87229 40.3592 6.20953 40.6772C5.55198 40.9952 4.8266 41.1447 4.03337 41.1256C3.22448 41.1065 2.50431 40.8998 1.87286 40.5055C1.24141 40.1112 0.761296 39.5547 0.432524 38.836C0.124625 38.1682 -0.0188864 37.405 0.00198804 36.5464L2.29557 36.556C2.22251 38.0633 2.83048 38.8297 4.11947 38.8551C4.67787 38.8551 5.1371 38.7056 5.49719 38.4067C5.85727 38.1078 6.07124 37.7103 6.13908 37.2142Z" fill="white"/>
<path d="M11.7047 40.9253H9.4816L10.9533 30.6031H13.1764L11.7047 40.9253ZM11.2116 27.9796C11.2011 27.5535 11.3159 27.2005 11.556 26.9206C11.7961 26.6408 12.0857 26.5009 12.4249 26.5009C12.7589 26.4882 13.0485 26.6122 13.2938 26.8729C13.5391 27.1337 13.6669 27.4708 13.6774 27.8842C13.6878 28.2785 13.5782 28.6219 13.3486 28.9145C13.1242 29.207 12.8293 29.3597 12.464 29.3724C12.1353 29.3851 11.8456 29.2643 11.5951 29.0099C11.3499 28.7555 11.222 28.4121 11.2116 27.9796Z" fill="white"/>
<path d="M18.061 28.0654L17.6931 30.6031H19.1021L18.8125 32.6255H17.4035L16.6833 37.7962C16.652 38.1205 16.6729 38.3686 16.7459 38.5403C16.819 38.712 16.9964 38.8042 17.2782 38.8169C17.3617 38.8233 17.5861 38.8074 17.9514 38.7692L17.7949 40.8776C17.4035 41.0366 16.9807 41.1097 16.5267 41.097C15.8013 41.0843 15.2612 40.8076 14.9064 40.267C14.5515 39.7264 14.4054 38.995 14.468 38.0728L15.196 32.6255H13.9983L14.2879 30.6031H15.4856L15.8457 28.0654H18.061Z" fill="white"/>
<path d="M22.9456 41.1161C22.2046 41.1097 21.547 40.8903 20.973 40.4578C20.4042 40.019 19.9788 39.4211 19.697 38.6643C19.4152 37.9011 19.3056 37.0616 19.3683 36.1458L19.3918 35.7642C19.47 34.7593 19.7101 33.8371 20.1119 32.9976C20.5138 32.1581 21.0304 31.5125 21.6618 31.061C22.2933 30.6031 22.9926 30.3868 23.7597 30.4123C24.8504 30.4377 25.675 30.9274 26.2334 31.8814C26.797 32.829 27.0109 34.0311 26.8752 35.4875L26.75 36.6609H21.5601C21.5392 37.3287 21.6723 37.863 21.9593 38.2636C22.2463 38.6643 22.6377 38.871 23.1335 38.8837C23.9372 38.9092 24.6417 38.5307 25.247 37.7485L26.2568 39.2749C25.9385 39.86 25.4793 40.3179 24.8791 40.6486C24.279 40.973 23.6345 41.1288 22.9456 41.1161ZM23.6501 32.6351C23.2431 32.6223 22.8804 32.7782 22.5621 33.1025C22.2489 33.4269 21.9671 33.9897 21.7166 34.7911H24.7539L24.8008 34.5431C24.8322 34.2887 24.8348 34.047 24.8087 33.818C24.7565 33.4491 24.6286 33.1629 24.4251 32.9594C24.2216 32.7495 23.9633 32.6414 23.6501 32.6351Z" fill="white"/>
<path d="M30.1708 38.6261H35.0085L34.6797 40.9253H27.5484L29.5289 27.0351H31.8225L30.1708 38.6261Z" fill="white"/>
<path d="M40.7541 30.4123C41.5004 30.425 42.1423 30.6603 42.6798 31.1182C43.2226 31.5698 43.6192 32.1962 43.8697 32.9976C44.1254 33.7926 44.2167 34.6766 44.1436 35.6497C44.0236 37.2906 43.5539 38.6198 42.7346 39.6374C41.9205 40.6486 40.9133 41.1415 39.713 41.1161C38.9772 41.1034 38.3405 40.8744 37.803 40.4292C37.2655 39.9776 36.8689 39.3544 36.6132 38.5594C36.3575 37.7644 36.2661 36.8867 36.3392 35.9263C36.4749 34.2219 36.9498 32.8672 37.7639 31.8623C38.578 30.8575 39.5747 30.3741 40.7541 30.4123ZM38.5232 36.909C38.5336 37.5195 38.651 38.0029 38.8754 38.359C39.0998 38.7088 39.4156 38.8901 39.8226 38.9028C40.501 38.9282 41.0333 38.5498 41.4195 37.7676C41.8057 36.9789 41.9857 35.9454 41.9596 34.6671C41.9388 34.0565 41.8161 33.57 41.5917 33.2075C41.3726 32.8386 41.0568 32.6478 40.6446 32.6351C39.987 32.6096 39.4599 32.988 39.0633 33.7703C38.6719 34.5462 38.4919 35.5924 38.5232 36.909Z" fill="white"/>
<path d="M45.2082 35.7546C45.3648 34.1583 45.7901 32.864 46.4842 31.8719C47.1835 30.8734 48.0628 30.3836 49.1222 30.4027C50.025 30.4282 50.6982 30.8257 51.1418 31.5952L51.4314 30.5935L53.4589 30.6031L52.0733 40.5723C51.922 41.946 51.4419 43.0336 50.633 43.835C49.8241 44.6363 48.8221 45.0243 47.6271 44.9988C47.0426 44.9861 46.4842 44.8303 45.9519 44.5314C45.4196 44.2388 44.9812 43.835 44.6368 43.3198L45.7327 41.6789C46.2233 42.4358 46.8391 42.8269 47.5801 42.8523C48.1541 42.8778 48.6447 42.6933 49.0517 42.299C49.4588 41.9111 49.7354 41.3609 49.8815 40.6486L50.0068 40.0285C49.391 40.779 48.6995 41.1415 47.9324 41.1161C47.1078 41.1034 46.4529 40.7313 45.9675 39.9999C45.4822 39.2621 45.2161 38.305 45.1691 37.1284C45.1534 36.7404 45.1665 36.2825 45.2082 35.7546ZM47.3766 36.8803C47.3766 37.4782 47.4783 37.9584 47.6819 38.3209C47.8906 38.677 48.1907 38.8646 48.5821 38.8837C49.1822 38.9092 49.7145 38.5975 50.179 37.9488L50.8365 33.5795C50.6121 32.9817 50.1972 32.67 49.5919 32.6446C49.0283 32.6255 48.5508 32.9022 48.1594 33.4746C47.768 34.047 47.5227 34.807 47.4235 35.7546C47.387 36.2189 47.3713 36.5941 47.3766 36.8803Z" fill="white"/>
<path d="M58.5862 30.4123C59.3324 30.425 59.9743 30.6603 60.5118 31.1182C61.0546 31.5698 61.4512 32.1962 61.7017 32.9976C61.9574 33.7926 62.0487 34.6766 61.9756 35.6497C61.8556 37.2906 61.3859 38.6198 60.5666 39.6374C59.7525 40.6486 58.7453 41.1415 57.545 41.1161C56.8092 41.1034 56.1725 40.8744 55.635 40.4292C55.0975 39.9776 54.7009 39.3544 54.4452 38.5594C54.1895 37.7644 54.0981 36.8867 54.1712 35.9263C54.3069 34.2219 54.7818 32.8672 55.5959 31.8623C56.41 30.8575 57.4067 30.3741 58.5862 30.4123ZM56.3552 36.909C56.3656 37.5195 56.4831 38.0029 56.7075 38.359C56.9319 38.7088 57.2476 38.8901 57.6546 38.9028C58.3331 38.9282 58.8654 38.5498 59.2515 37.7676C59.6377 36.9789 59.8177 35.9454 59.7917 34.6671C59.7708 34.0565 59.6481 33.57 59.4237 33.2075C59.2046 32.8386 58.8888 32.6478 58.4766 32.6351C57.819 32.6096 57.2919 32.988 56.8953 33.7703C56.5039 34.5462 56.3239 35.5924 56.3552 36.909Z" fill="white"/>
</svg>
