<svg width="19" height="20" viewBox="0 0 19 20" fill="none" xmlns="http://www.w3.org/2000/svg">
<path d="M4.80642 3.27238C4.80642 2.40507 5.04797 1.57329 5.47793 0.960011C5.9079 0.346733 6.49105 0.00219727 7.0991 0.00219727H11.6845C12.2925 0.00219727 12.8757 0.346733 13.3056 0.960011C13.7356 1.57329 13.9771 2.40507 13.9771 3.27238V16.3531C13.9771 17.2204 13.7356 18.0522 13.3056 18.6655C12.8757 19.2788 12.2925 19.6233 11.6845 19.6233H7.0991C6.49105 19.6233 5.9079 19.2788 5.47793 18.6655C5.04797 18.0522 4.80642 17.2204 4.80642 16.3531V3.27238ZM10.5381 14.718C10.5381 14.2844 10.4173 13.8685 10.2024 13.5618C9.98739 13.2552 9.69581 13.0829 9.39178 13.0829C9.08776 13.0829 8.79618 13.2552 8.5812 13.5618C8.36622 13.8685 8.24545 14.2844 8.24545 14.718C8.24545 15.1517 8.36622 15.5676 8.5812 15.8742C8.79618 16.1808 9.08776 16.3531 9.39178 16.3531C9.69581 16.3531 9.98739 16.1808 10.2024 15.8742C10.4173 15.5676 10.5381 15.1517 10.5381 14.718ZM2.2925 4.47254C2.36364 4.28086 2.37849 4.05673 2.33377 3.84944C2.28906 3.64215 2.18844 3.46869 2.05406 3.36722C1.91968 3.26574 1.76254 3.24456 1.61722 3.30835C1.47189 3.37213 1.35028 3.51564 1.27914 3.70731C0.582144 5.58865 0.218867 7.68489 0.221064 9.81274C0.221064 12.0152 0.603942 14.0934 1.27914 15.9182C1.31436 16.0131 1.36235 16.0972 1.42036 16.1656C1.47837 16.2341 1.54526 16.2856 1.61722 16.3171C1.68918 16.3487 1.76479 16.3598 1.83974 16.3497C1.9147 16.3396 1.98752 16.3085 2.05406 16.2583C2.1206 16.208 2.17955 16.1396 2.22754 16.0568C2.27553 15.9741 2.31163 15.8787 2.33377 15.7761C2.35591 15.6734 2.36367 15.5656 2.35658 15.4586C2.3495 15.3517 2.32773 15.2479 2.2925 15.153C1.68293 13.5074 1.3653 11.6739 1.3674 9.81274C1.3674 7.88334 1.70214 6.06512 2.2925 4.47254ZM17.5044 3.70731C17.4333 3.51564 17.3117 3.37213 17.1664 3.30835C17.021 3.24456 16.8639 3.26574 16.7295 3.36722C16.5951 3.46869 16.4945 3.64215 16.4498 3.84944C16.4051 4.05673 16.4199 4.28086 16.4911 4.47254C17.0814 6.06512 17.4162 7.8817 17.4162 9.81274C17.4162 11.7422 17.0814 13.5604 16.4911 15.153C16.4199 15.3446 16.4051 15.5688 16.4498 15.7761C16.4945 15.9833 16.5951 16.1568 16.7295 16.2583C16.8639 16.3597 17.021 16.3809 17.1664 16.3171C17.3117 16.2534 17.4333 16.1098 17.5044 15.9182C18.2014 14.0368 18.5647 11.9406 18.5625 9.81274C18.5647 7.68489 18.2014 5.58865 17.5044 3.70731ZM4.04984 6.84015C4.08183 6.7391 4.09907 6.62982 4.10052 6.51897C4.10197 6.40811 4.0876 6.29799 4.05828 6.19531C4.02895 6.09263 3.98529 5.99952 3.92995 5.92166C3.87461 5.8438 3.80874 5.78281 3.73636 5.7424C3.66397 5.70199 3.58658 5.68301 3.50889 5.6866C3.4312 5.69019 3.35483 5.71628 3.28443 5.76329C3.21403 5.8103 3.15107 5.87725 3.09938 5.96005C3.04769 6.04286 3.00834 6.1398 2.98374 6.24498C2.67247 7.38202 2.51307 8.59209 2.51374 9.81274C2.51374 11.0701 2.67996 12.2736 2.98374 13.3805C3.00834 13.4857 3.04769 13.5826 3.09938 13.6654C3.15107 13.7482 3.21403 13.8152 3.28443 13.8622C3.35483 13.9092 3.4312 13.9353 3.50889 13.9389C3.58658 13.9425 3.66397 13.9235 3.73636 13.8831C3.80874 13.8427 3.87461 13.7817 3.92995 13.7038C3.98529 13.626 4.02895 13.5329 4.05828 13.4302C4.0876 13.3275 4.10197 13.2174 4.10052 13.1065C4.09907 12.9957 4.08183 12.8864 4.04984 12.7853C3.79109 11.8378 3.65889 10.8296 3.66008 9.81274C3.66008 8.76302 3.79765 7.76071 4.04984 6.84015ZM15.7998 6.24498C15.7394 6.05394 15.6297 5.90334 15.4937 5.82427C15.3576 5.7452 15.2054 5.74371 15.0685 5.8201C14.9317 5.8965 14.8206 6.04494 14.7583 6.23477C14.696 6.4246 14.6872 6.64132 14.7337 6.84015C14.9859 7.76071 15.1235 8.76302 15.1235 9.81274C15.1235 10.8625 14.9859 11.8648 14.7337 12.7853C14.6872 12.9842 14.696 13.2009 14.7583 13.3907C14.8206 13.5805 14.9317 13.729 15.0685 13.8054C15.2054 13.8818 15.3576 13.8803 15.4937 13.8012C15.6297 13.7222 15.7394 13.5715 15.7998 13.3805C16.1048 12.2736 16.2698 11.0701 16.2698 9.81274C16.2698 8.55536 16.1036 7.35193 15.7998 6.24498Z" fill="black"/>
</svg>
