<svg width="19" height="17" viewBox="0 0 19 17" fill="none" xmlns="http://www.w3.org/2000/svg">
<path d="M15.8259 0.9646H2.98689C2.25722 0.9646 1.55744 1.27468 1.04149 1.82663C0.525532 2.37858 0.235672 3.12719 0.235672 3.90776V13.7183C0.235672 14.4989 0.525532 15.2475 1.04149 15.7994C1.55744 16.3514 2.25722 16.6615 2.98689 16.6615H15.8259C16.5556 16.6615 17.2554 16.3514 17.7713 15.7994C18.2873 15.2475 18.5771 14.4989 18.5771 13.7183V3.90776C18.5771 3.12719 18.2873 2.37858 17.7713 1.82663C17.2554 1.27468 16.5556 0.9646 15.8259 0.9646ZM15.8259 2.92671L9.86494 7.31202C9.72553 7.39813 9.56738 7.44346 9.4064 7.44346C9.24542 7.44346 9.08728 7.39813 8.94787 7.31202L2.98689 2.92671H15.8259Z" fill="black"/>
</svg>
